<?xml version="1.0" encoding="UTF-8"?>
<!-- Generator: Adobe Illustrator 19.0.0, SVG Export Plug-In . SVG Version: 6.00 Build 0)  -->
<svg enable-background="new 0 0 508 508" fill="#fff" version="1.1" viewBox="0 0 508 508" xml:space="preserve" xmlns="http://www.w3.org/2000/svg" xmlns:cc="http://creativecommons.org/ns#" xmlns:dc="http://purl.org/dc/elements/1.1/" xmlns:rdf="http://www.w3.org/1999/02/22-rdf-syntax-ns#"><metadata><rdf:RDF><cc:Work rdf:about=""><dc:format>image/svg+xml</dc:format><dc:type rdf:resource="http://purl.org/dc/dcmitype/StillImage"/><dc:title/></cc:Work></rdf:RDF></metadata><defs><radialGradient id="SVGID_1_" cx="84.983" cy="62.808" r="416.94" gradientTransform="matrix(.96771 -.11803 .12659 1.038 -45.475 428.1)" gradientUnits="userSpaceOnUse"><stop stop-color="#e13719" offset="0"/><stop stop-color="#d02708" offset=".43244"/><stop stop-color="#ca2028" offset="1"/></radialGradient>
	

	

	

	

	
</defs>
<path d="m123.13 5.2229c-65.285 2.559-117.61 56.474-117.61 122.39v252.21c0 67.543 54.935 122.49 122.46 122.49h252.22c62.301 0 113.89-46.738 121.54-106.98v-283.23c-7.4484-58.674-56.577-104.53-116.68-106.88z" fill="url(#SVGID_1_)" stroke-width="1.0512"/><path d="m129.18 0c-71.232 0-129.18 57.965-129.18 129.21v249.57c0 71.248 57.948 129.21 129.18 129.21h249.58c71.264 0 129.24-57.965 129.24-129.21v-249.57c0-71.248-57.976-129.21-129.24-129.21h-249.58zm0 8h249.58c66.848 0 121.24 54.377 121.24 121.21v249.57c0 66.836-54.388 121.21-121.24 121.21h-249.58c-66.82 0-121.18-54.377-121.18-121.21v-249.57c0-66.836 54.36-121.21 121.18-121.21zm8.8281 15.809c-61.904 0-114.2 52.291-114.2 114.19v231.99c0 61.904 52.295 114.2 114.2 114.2h231.98c61.904 0 114.2-52.295 114.2-114.2v-112.02c0-2.208-1.788-4-4-4s-4 1.792-4 4v112.02c0 57.564-48.631 106.2-106.2 106.2h-231.98c-57.568 0-106.2-48.631-106.2-106.2v-231.99c0-57.56 48.631-106.19 106.2-106.19h225.12c28.848 0 62.169 13.175 81.029 32.035 0.78 0.78 1.8041 1.1719 2.8281 1.1719s2.0481-0.39188 2.8281-1.1719c1.564-1.564 1.564-4.0922 0-5.6562-18.968-18.972-50.086-32.188-79.359-34.123-0.42866-0.15679-0.88576-0.25586-1.3691-0.25586h-5.957-225.12zm123.1 69.768c-52.16 0-84.227 20.679-101.94 38.023-21.848 21.388-34.377 49.784-34.377 77.904 0 35.176 15.11 62.163 40.438 72.195 3.244 1.272 6.5227 1.2176 9.2227-0.15039 2.616-1.332 4.5253-3.832 5.3613-7 0.444-1.612 1.1915-4.4777 1.9395-7.3457 0.712-2.72 1.4232-5.4385 1.8672-7.0625 1.576-5.76 0.82019-8.6922-3.5078-13.656-7.568-8.624-11.248-19.256-11.248-32.504 0-53.152 44.916-81.828 87.172-81.828 45.064 0 73.057 24.776 73.057 64.66 0 52.036-23.515 91.279-54.699 91.279-8.76 0-16.557-3.5275-21.393-9.6875-4.336-5.52-5.7408-12.581-3.9648-19.869 1.984-8.064 4.6639-16.45 7.2559-24.562 1.012-3.168 2.0129-6.301 2.9609-9.373 3.256-10.568 6.2715-21.592 6.2715-30.596 0-18.768-11.38-30.893-28.984-30.893-22.28 0-39.73 22.125-39.73 50.369 0 17.688 6.1073 29.703 6.3633 30.207 1.012 1.964 3.4286 2.7327 5.3926 1.7207 1.964-1.016 2.7308-3.4286 1.7188-5.3926-0.056-0.108-5.4707-10.775-5.4707-26.535 0-23.76 13.938-42.369 31.73-42.369 19.472 0 20.984 17.525 20.984 22.893 0 7.948-2.8399 18.272-5.9199 28.244-0.936 3.044-1.9276 6.151-2.9316 9.291-2.636 8.24-5.3562 16.766-7.4082 25.098-2.376 9.732-0.44464 19.219 5.4434 26.715 6.36 8.1 16.45 12.748 27.682 12.748 35.748 0 62.699-42.679 62.699-99.279 0-44.14-31.817-72.66-81.057-72.66-46.136 0-95.172 31.484-95.172 89.828 0 15.272 4.3285 27.627 13.229 37.771 2.688 3.08 2.6205 3.3234 1.8125 6.2754-0.452 1.648-1.1687 4.4042-1.8887 7.1562-0.736 2.824-1.4758 5.6452-1.9238 7.2812-0.18 0.692-0.54776 1.5872-1.2598 1.9512-0.63599 0.32-1.592 0.25984-2.668-0.16016-22.144-8.772-35.367-32.98-35.367-64.752 0-74.444 75.038-107.93 128.32-107.93 70.888 0 113.25 50.164 113.25 98.664 0 69.94-39.444 118.78-95.912 118.78-19.272 0-36.35-10.279-41.734-20.215-0.776-1.448-2.3721-2.2644-3.9961-2.0684-1.636 0.2-2.9766 1.3768-3.3926 2.9648-0.104 0.412-10.756 41.308-12.996 49.164-6.224 21.82-22.329 44.123-30.561 54.559-2.112-15.132-4.3186-41.124 1.0254-63 0.524-2.148-0.79351-4.3119-2.9375-4.8359-2.144-0.516-4.3119 0.78755-4.8359 2.9356-6.004 24.596-3.0518 53.68-0.75977 68.828l0.10742 0.73242c0.336 2.524 2.0923 4.5209 4.5723 5.2129 0.6 0.164 1.2125 0.24805 1.8125 0.24805 1.972 0 3.8647-0.87666 5.1367-2.4727l0.39453-0.49218c7.784-9.616 26.652-34.667 33.744-59.535 1.664-5.844 7.6973-28.861 10.945-41.305 9.768 10.212 26.859 17.268 43.475 17.268 60.212 0 103.91-53.319 103.91-126.78 0-27.444-12.167-54.489-33.383-74.197-22.536-20.936-53.745-32.463-87.873-32.463zm219.08 73.092c-2.212 0-4 1.792-4 4v59.523c0 2.208 1.788 4 4 4s4-1.792 4-4v-59.523c0-2.208-1.788-4-4-4z" fill="#000"/>





</svg>
