<?xml version="1.0" encoding="UTF-8"?>
<!-- Generator: Adobe Illustrator 19.0.0, SVG Export Plug-In . SVG Version: 6.00 Build 0)  -->
<svg enable-background="new 0 0 508 508" version="1.1" viewBox="0 0 508 508" xml:space="preserve" xmlns="http://www.w3.org/2000/svg" xmlns:cc="http://creativecommons.org/ns#" xmlns:dc="http://purl.org/dc/elements/1.1/" xmlns:rdf="http://www.w3.org/1999/02/22-rdf-syntax-ns#"><metadata><rdf:RDF><cc:Work rdf:about=""><dc:format>image/svg+xml</dc:format><dc:type rdf:resource="http://purl.org/dc/dcmitype/StillImage"/><dc:title/></cc:Work></rdf:RDF></metadata><defs>
	

	

	

	

	

	

		
	
		
	
		
	
		
	
		
	
		
	<radialGradient id="SVGID_1_" cx="62.823" cy="27.864" r="416.94" gradientTransform="matrix(1.2911 -.13385 .12965 1.2505 -73.466 430.53)" gradientUnits="userSpaceOnUse"><stop stop-color="#8bb7f0" offset="0"/><stop stop-color="#1877f2" offset=".46448"/><stop stop-color="#1c407c" offset="1"/></radialGradient></defs>
<path d="m127.02 4.5097c-67.839 0-123.03 55.206-123.03 123.06v253.38c0 62.314 46.546 113.95 106.69 121.97h286.08c60.168-8.0188 106.74-59.658 106.74-121.97v-253.38c0-67.855-55.214-123.06-123.08-123.06z" fill="url(#SVGID_1_)" stroke-width="1.0591"/><path d="m129.18 0c-71.228 0-129.18 57.965-129.18 129.21v249.57c0 71.248 57.952 129.21 129.18 129.21h249.58c71.26 0 129.24-57.965 129.24-129.21v-249.57c0-71.248-57.976-129.21-129.24-129.21h-249.58zm0 8h249.58c66.852 0 121.24 54.377 121.24 121.21v249.57c0 66.836-54.388 121.21-121.24 121.21h-249.58c-66.82 0-121.18-54.377-121.18-121.21v-249.57c0-66.836 54.36-121.21 121.18-121.21zm239.9 15.809c-0.01336 0-0.02572 0.003775-0.03906 0.003906h-231.03c-61.9 0-114.2 52.292-114.2 114.19v231.99c0 61.904 52.295 114.2 114.2 114.2h231.99c61.904 0 114.2-52.299 114.2-114.21v-112.02c0-2.208-1.792-4-4-4s-4 1.792-4 4v112.02c0 57.568-48.631 106.2-106.2 106.2h-231.99c-57.564 0-106.2-48.635-106.2-106.2v-231.99c0-57.564 48.631-106.19 106.2-106.19h231.08c0.01138 0 0.02184-0.003811 0.0332-0.003906 27.344 0.010553 54.692 11.684 75.039 32.035 0.78 0.78 1.8041 1.1719 2.8281 1.1719s2.0481-0.39188 2.8281-1.1719c1.564-1.564 1.564-4.0922 0-5.6562-21.848-21.848-51.272-34.379-80.732-34.379zm-92.453 70.207c-51.816 0-70.275 35.845-70.275 69.389v23.104h-23.775c-2.208 0-4 1.792-4 4v63.492c0 2.208 1.792 4 4 4h27.748v150.76c0 2.208 1.792 4 4 4h59.52c2.208 0 4-1.788 4-4v-35.715c0-2.208-1.792-4-4-4s-4 1.792-4 4v31.715h-51.52v-150.76c0-2.208-1.792-4-4-4h-27.748v-55.488h23.775c2.208 0 4-1.792 4-4v-27.104c0-58.428 51.876-61.389 62.26-61.389l44.82 0.17969v44.625h-30.443c-8.548 0-17.176 6.1358-17.176 19.84v23.844c0 2.208 1.792 4 4 4h44.611l-4.9726 55.492h-43.607c-2.208 0-4 1.792-4 4v51.588c0 2.208 1.792 4 4 4s4-1.792 4-4v-47.588h43.264c2.072 0 3.8004-1.5804 3.9844-3.6484l5.6875-63.492c0.1-1.12-0.27125-2.2267-1.0312-3.0547s-1.8272-1.3008-2.9512-1.3008h-44.984v-19.844c0-10.988 7.0238-11.84 9.1758-11.84h34.443c2.208 0 4-1.792 4-4v-52.607c0-2.204-1.7804-3.992-3.9844-4l-48.82-0.19727zm203.57 72.652c-2.208 0-4 1.792-4 4v59.523c0 2.208 1.792 4 4 4s4-1.792 4-4v-59.523c0-2.208-1.792-4-4-4z"/>



















</svg>
