<?xml version="1.0" encoding="UTF-8"?>
<!-- Generator: Adobe Illustrator 19.0.0, SVG Export Plug-In . SVG Version: 6.00 Build 0)  -->
<svg enable-background="new 0 0 508 508" version="1.1" viewBox="0 0 508 508" xml:space="preserve" xmlns="http://www.w3.org/2000/svg" xmlns:cc="http://creativecommons.org/ns#" xmlns:dc="http://purl.org/dc/elements/1.1/" xmlns:rdf="http://www.w3.org/1999/02/22-rdf-syntax-ns#">
	<metadata><rdf:RDF>
		<cc:Work rdf:about="">
		<dc:format>image/svg+xml</dc:format>
		<dc:type rdf:resource="http://purl.org/dc/dcmitype/StillImage"/>
		<dc:title/></cc:Work></rdf:RDF>
	</metadata>

	<defs>
		<radialGradient id="SVGID_1_-7" cx="62.823" cy="27.864" r="684.52" gradientTransform="matrix(1.07 -.05608 .047668 .90952 -58.265 440.22)" gradientUnits="userSpaceOnUse">
		<stop stop-color="#FED576" offset="0"/>
		<stop stop-color="#F47133" offset=".2634"/>
		<stop stop-color="#BC3081" offset=".6091"/>
		<stop stop-color="#4C63D2" offset="1"/>
		</radialGradient>
	</defs>

	<path 
		fill="url(#SVGID_1_-7)" 
		stroke-width="1.0715" 
		d="m126.49 3.2288c-68.47 0-124.17 55.721-124.17 124.21v255.75c0 68.49 55.704 124.21 124.17 124.21h255.76c68.507 0 124.24-55.721 124.24-124.21v-255.75c0-68.494-55.734-124.21-124.24-124.21z"
	/>
	<path 
		fill="#000" 
		d="m129.18 0c-71.228 0-129.18 57.965-129.18 129.22v249.57c0 71.248 57.948 129.21 129.18 129.21h249.58c71.264 0 129.24-57.963 129.24-129.21v-249.58c0-71.252-57.98-129.22-129.24-129.22h-249.58zm0 8h249.58c66.856 0 121.24 54.377 121.24 121.22v249.58c0 66.836-54.392 121.21-121.24 121.21h-249.58c-66.816 0-121.18-54.375-121.18-121.21v-249.58c0-66.84 54.36-121.22 121.18-121.22zm8.8281 15.809c-61.9 0-114.2 52.295-114.2 114.2v231.98c0 61.904 52.295 114.2 114.2 114.2h231.99c61.904 0 114.2-52.295 114.2-114.2v-112.02c0-2.208-1.792-4-4-4s-4 1.792-4 4v112.02c0 57.568-48.631 106.2-106.2 106.2h-231.99c-57.564 0-106.2-48.631-106.2-106.2v-231.98c0-57.568 48.631-106.2 106.2-106.2h231.07 0.00391c27.347 0.001111 54.709 11.676 75.072 32.035 0.78 0.78 1.8041 1.1719 2.8281 1.1719s2.0481-0.39188 2.8281-1.1719c1.564-1.564 1.564-4.0962 0-5.6562-21.851-21.847-51.278-34.378-80.729-34.379h-0.00391-231.07zm20.293 71.428c-35.36 0-63.061 27.704-63.061 63.064v191.4c0 35.36 27.701 63.057 63.061 63.057h191.39c35.368 0 63.072-27.693 63.076-63.053v-95.707c0-2.208-1.792-4-4-4s-4 1.792-4 4v95.707c0 30.872-24.192 55.057-55.076 55.057h-191.39c-30.876 0-55.061-24.185-55.061-55.057v-191.41c0-30.88 24.189-55.064 55.061-55.064h191.39c31.224 0 55.684 24.452 55.684 55.672 0 2.208 1.792 4 4 4s4-1.792 4-4c0-35.704-27.972-63.672-63.684-63.672h-191.39zm214.73 34.715-52.244 0.18164c-2.2 8e-3 -3.9823 1.7902-3.9863 3.9902l-0.12109 52.869c-0.00401 1.068 0.41987 2.0878 1.1719 2.8398 0.752 0.748 1.7681 1.168 2.8281 1.168h0.01171l52.377-0.1875c2.208-8e-3 3.9883-1.796 3.9883-4v-52.861c0-1.064-0.42564-2.0839-1.1816-2.8359s-1.7198-0.99206-2.8438-1.1641zm-3.9785 8.0254v44.852l-44.365 0.16016 0.10351-44.869 44.262-0.14258zm111.15 28.691c-2.208 0-4 1.792-4 4v59.523c0 2.208 1.792 4 4 4s4-1.792 4-4v-59.523c0-2.208-1.792-4-4-4zm-226.2 28.439c-18.788 0-36.644 9.1767-47.764 24.553-7.292 10.12-11.148 22-11.148 34.348 0 32.48 26.428 58.9 58.912 58.9 32.496 0 58.928-26.424 58.928-58.896 0-12.324-3.8523-24.199-11.152-34.355-11.112-15.372-28.975-24.549-47.775-24.549zm0 7.9961c16.244 0 31.675 7.9405 41.283 21.229 6.312 8.776 9.6445 19.036 9.6445 29.676 0 28.068-22.844 50.9-50.928 50.9-28.072 0-50.912-22.832-50.912-50.9 0-10.66 3.3327-20.92 9.6367-29.668 9.612-13.3 25.043-21.236 41.275-21.236zm-126.98 15.148c-2.208 0-4 1.792-4 4v127.46c0 18.792 16.485 35.277 35.281 35.277h191.39c18.804 0 35.297-16.485 35.297-35.281v-127.45c0-2.208-1.792-4-4-4h-47.977c-1.388 0-2.6802 0.7203-3.4082 1.9043-0.728 1.188-0.78816 2.6643-0.16016 3.9043 3.56 7.04 5.8613 18.844 5.8613 30.08 0 44.792-36.477 81.23-81.309 81.23-44.828 0-81.301-36.427-81.301-81.199 0-11.288 2.2975-23.107 5.8535-30.107 0.628-1.24 0.57175-2.7203-0.15625-3.9043-0.732-1.184-2.0201-1.9082-3.4121-1.9082h-47.961zm211.98 8h37.992v123.45c0 14.276-13.009 27.277-27.297 27.277h-191.39c-14.276 0-27.281-13.001-27.281-27.277v-123.45h37.973c-2.7 7.836-4.2969 17.964-4.2969 27.916 0 49.184 40.061 89.199 89.301 89.199 49.244 0 89.309-40.026 89.309-89.23 0-9.916-1.6006-20.033-4.3086-27.889z"
	/>
</svg>
