<?xml version="1.0" encoding="UTF-8"?>
<!-- Created with Inkscape (http://www.inkscape.org/) -->
<svg width="134.41mm" height="134.41mm" version="1.1" viewBox="0 0 134.41 134.41" xmlns="http://www.w3.org/2000/svg" xmlns:cc="http://creativecommons.org/ns#" xmlns:dc="http://purl.org/dc/elements/1.1/" xmlns:rdf="http://www.w3.org/1999/02/22-rdf-syntax-ns#">
 <defs>
  <radialGradient id="SVGID_1_" cx="128.18" cy="16.65" r="416.94" gradientTransform="matrix(.26717 -.046997 .038416 .21839 -8.606 117.44)" gradientUnits="userSpaceOnUse">
   <stop stop-color="#fff660" offset="0"/>
   <stop stop-color="#ffd936" offset=".46486"/>
   <stop stop-color="#ff6200" offset="1"/>
  </radialGradient>
 </defs>
 <metadata>
  <rdf:RDF>
   <cc:Work rdf:about="">
    <dc:format>image/svg+xml</dc:format>
    <dc:type rdf:resource="http://purl.org/dc/dcmitype/StillImage"/>
    <dc:title/>
   </cc:Work>
  </rdf:RDF>
 </metadata>
 <path d="m33.744 1.311c-17.112 0-31.17 13.325-32.352 30.146v71.392c1.1818 16.821 15.239 30.146 32.352 30.146h66.802c17.892 0 32.449-14.554 32.449-32.443v-66.799c0-17.889-14.556-32.443-32.449-32.443z" fill="url(#SVGID_1_)" stroke-width=".27841"/>
 <path d="m34.178 0c-18.845 0-34.178 15.336-34.178 34.186v66.031c0 18.851 15.333 34.186 34.178 34.186h66.034c18.854 0 34.192-15.336 34.192-34.186v-66.031c0-18.851-15.339-34.186-34.192-34.186zm0 2.1166h66.034c17.687 0 32.075 14.387 32.075 32.07v66.031c0 17.683-14.39 32.07-32.075 32.07h-66.034c-17.679 0-32.062-14.387-32.062-32.07v-66.031c0-17.683 14.382-32.07 32.062-32.07zm63.473 4.1827c-0.0019 0-0.0034 5.027e-4 -0.0052 5.292e-4h-61.134c-16.377 0-30.215 13.835-30.215 30.212v61.38c0 16.378 13.836 30.215 30.215 30.215h61.38c16.378 0 30.215-13.838 30.215-30.218v-29.638c0-0.58419-0.47412-1.0583-1.0583-1.0583v0.0026c-0.58419 0-1.0583 0.47413-1.0583 1.0583v29.638c0 15.231-12.867 28.098-28.098 28.098h-61.38c-15.23 0-28.098-12.868-28.098-28.098v-61.38c0-15.23 12.867-28.096 28.098-28.096h61.139c3e-3 0 0.0058-0.00101 0.0088-0.00103 7.2347 0.00265 14.47 3.0919 19.854 8.4763 0.20637 0.20637 0.47733 0.31006 0.74826 0.31006s0.54191-0.10369 0.74826-0.31006c0.4138-0.4138 0.4138-1.0827 0-1.4965-5.7806-5.7805-13.565-9.096-21.36-9.096zm-54.355 13.513c-8.5917-0.18557-16.119 6.1771-17.196 14.887-1.1491 9.2905 5.4702 17.776 14.761 18.925 0.71802 0.08881 1.4304 0.12616 2.1358 0.12454l13.679 16.371 19.457 20.986 0.03204-0.02945c0.10983 0.20856 0.23934 0.41417 0.38756 0.61547 0.58702 0.79721 1.3274 1.3438 2.1564 1.5017 0.82901 0.15787 1.6235-0.06667 2.3399-0.416 0.24706-0.12047 0.49119-0.2614 0.73484-0.41081l5.6967 5.997 0.64232-0.25786s0.50365-0.20321 1.1116-0.48834c0.34861-0.1635 0.72519-0.3488 1.0893-0.55654 1.1466 1.7895 1.5831 3.3382 1.4438 4.4508-0.15612 1.247-0.88809 2.1509-2.7326 2.7852-2.1356 0.7345-4.0597 1.5571-5.535 2.7852-1.4754 1.2282-2.4607 2.9511-2.4923 5.1014-0.0304 2.0662 0.53241 4.0936 1.8319 5.6229 1.2995 1.5291 3.3464 2.4778 5.9261 2.4143 2.2485-0.0554 4.4465-0.50662 6.3121-1.9787 1.8656-1.472 3.3155-3.8801 4.3396-7.6035 0.96188-3.4964 2.0566-5.4154 3.4803-6.5603 1.4237-1.1448 3.3326-1.6332 6.1877-1.9337 3.303-0.34777 5.5041-2.555 6.4626-5.1583 0.95863-2.6033 0.82983-5.6178-0.29299-8.0485a1.0201 1.0201 0 0 0-0.9803-0.60565 1.0201 1.0201 0 0 0-0.87126 1.4609c0.86885 1.881 0.98461 4.4404 0.23047 6.4883-0.75413 2.0479-2.2233 3.5687-4.7614 3.8359-2.986 0.31437-5.3604 0.84842-7.2537 2.3709-1.8934 1.5224-3.1519 3.9153-4.1682 7.6093-0.95373 3.4668-2.2159 5.4223-3.6364 6.5431-1.4206 1.1209-3.0808 1.4913-5.0979 1.541-2.0799 0.0512-3.4163-0.62954-4.3222-1.6955-0.90584-1.0659-1.3703-2.5996-1.3456-4.2735 0.02339-1.59 0.61946-2.6159 1.7559-3.562 1.1365-0.94613 2.8538-1.7223 4.8942-2.4241 2.3314-0.80194 3.838-2.4344 4.0917-4.4606 0.23276-1.8591-0.46825-3.8772-1.8629-5.9819 0.7494-0.7822 1.3648-1.6314 1.3648-1.6314l0.42994-0.56223-4.3055-6.8389c0.10318-0.0958 0.2077-0.19124 0.30384-0.2904 0.56051-0.57819 1.0273-1.2783 1.111-2.1363 0.0838-0.85793-0.25696-1.7313-0.89243-2.5331-0.11133-0.14047-0.22728-0.26969-0.3457-0.39324l-16.847-24.306-13.185-16.873c0.09173-0.44505 0.17116-0.89521 0.22789-1.3539 1.1491-9.2905-5.4702-17.778-14.761-18.927-0.58065-0.071818-1.1584-0.11372-1.7311-0.12609zm-0.04599 2.0402c0.50498 0.01118 1.0142 0.04774 1.5265 0.1111 2.899 0.35856 5.4959 1.5243 7.6006 3.24l-22.94 17.953c-1.1667-2.47-1.6728-5.2897-1.3121-8.2067 0.9504-7.6839 7.5503-13.265 15.125-13.097zm-2.3285 2.5915c-0.52255 0.0489-0.96082 0.4659-1.0237 1.0061-0.07189 0.61697 0.37033 1.1928 0.98805 1.2661 0.61726 0.07386 1.1834-0.38322 1.2557-1.0041 0.07267-0.62052-0.37361-1.194-0.99011-1.2655a0.41235 0.41235 0 0 0-0.0021 0c-0.07724-0.0088-0.15324-0.0096-0.22789-0.0026zm0.13436 0.82268c0.16838 0.02045 0.28956 0.16305 0.26768 0.34985-0.02188 0.18785-0.17191 0.30122-0.34004 0.28112a0.41235 0.41235 0 0 0 0-0.0021c-0.16787-0.01992-0.28694-0.16626-0.26561-0.34932 0.02103-0.1807 0.17163-0.29675 0.33798-0.27956zm3.875 0.65214c-0.52218 0.04891-0.95876 0.4659-1.0216 1.0061-0.0719 0.617 0.3688 1.1922 0.98649 1.2655 0.61727 0.07385 1.1834-0.38322 1.2557-1.0041 0.07268-0.62052-0.37361-1.194-0.99011-1.2655a0.41235 0.41235 0 0 0-0.0021 0c-0.07724-0.0088-0.15381-0.0091-0.22841-0.0021zm8.7952 0.5276c0.5027 0.52474 0.96699 1.0848 1.388 1.6764l-23.501 18.394c-0.47341-0.5512-0.90571-1.1368-1.2945-1.7513zm-8.6608 0.29506c0.16837 0.02045 0.28956 0.16254 0.26768 0.34932-0.02188 0.18785-0.17139 0.30175-0.33951 0.28164-0.16785-0.0199-0.28694-0.16886-0.26561-0.35192 0.02101-0.18066 0.17111-0.29622 0.33744-0.27905zm-8.1184 0.4165c-0.41878 0.03251-0.74657 0.34078-0.91465 0.73379a0.41235 0.41235 0 0 0-0.15244 0.27336c-0.07189 0.61697 0.37086 1.1922 0.98855 1.2655 0.6165 0.07263 1.1835-0.3839 1.2557-1.0041 0.07268-0.62052-0.37361-1.194-0.99011-1.2655a0.41235 0.41235 0 0 0-0.0021 0c-0.06333-0.0072-0.12518-0.0078-0.185-0.0031zm0.09095 0.82372h5.29e-4c0.16836 0.02045 0.28749 0.16254 0.26561 0.34932-0.02188 0.18782-0.16984 0.30175-0.33795 0.28164a0.41235 0.41235 0 0 0-0.0021 0c-0.16787-0.01992-0.28487-0.16884-0.26354-0.35192 0.02103-0.18067 0.17111-0.29622 0.33744-0.27905zm3.9713 0.82009c-0.52255 0.04928-0.96085 0.46743-1.0237 1.0077-0.07189 0.61697 0.37036 1.1928 0.98805 1.2661 0.61726 0.0739 1.1839-0.38322 1.2562-1.0041 0.07267-0.62052-0.37414-1.1961-0.99061-1.2676a0.41235 0.41235 0 0 0-0.0016 0h-5.29e-4c-0.07707-0.0087-0.15341-9e-3 -0.22789-0.0021zm0.13436 0.82422c0.16838 0.02045 0.28956 0.16305 0.26768 0.34985-0.02188 0.18785-0.1719 0.29916-0.34004 0.27905-0.16786-0.0199-0.28694-0.16628-0.26561-0.34932 0.02101-0.18068 0.17163-0.29675 0.33795-0.27956zm14.931 0.04341c1.4307 2.639 2.0845 5.7332 1.6872 8.9457-1.0138 8.1962-8.4547 13.999-16.651 12.986-3.1945-0.39512-6.0226-1.7696-8.2284-3.7816zm-23.049 0.37102c-0.41878 0.03251-0.74656 0.34078-0.91465 0.73379a0.41235 0.41235 0 0 0-0.15245 0.27389c-0.07189 0.61698 0.37033 1.1923 0.98805 1.2655 0.61647 0.0726 1.184-0.3839 1.2562-1.0041 0.07268-0.62052-0.37414-1.194-0.99061-1.2655a0.41235 0.41235 0 0 0-0.0016 0c-0.06333-0.0072-0.12517-0.0083-0.185-0.0036zm0.09095 0.82372c0.16837 0.0205 0.28749 0.16302 0.26561 0.34985-0.02188 0.18785-0.1698 0.30122-0.33795 0.28112a0.41235 0.41235 0 0 0-0.0016 0c-0.16787-0.0199-0.28694-0.16831-0.26561-0.35139 0.02103-0.18066 0.17318-0.29675 0.33951-0.27956zm3.842 0.92759c-0.52255 0.04892-0.96082 0.4659-1.0237 1.0061-0.07189 0.61697 0.3688 1.1923 0.98649 1.2655 0.61726 0.0738 1.1834-0.38269 1.2557-1.0036 0.07266-0.62052-0.37361-1.1945-0.99011-1.2661-0.07724-0.0088-0.15376-0.0089-0.22841-0.0021zm0.13436 0.82062c0.16933 0.01968 0.28757 0.16391 0.26561 0.35139-0.02188 0.18783-0.17138 0.30175-0.33951 0.28162-0.16787-0.0199-0.28694-0.16882-0.26561-0.35192 0.02114-0.18179 0.17193-0.30011 0.33951-0.28112zm-4.0989 2.1275c-0.41941 0.03273-0.74839 0.34226-0.91622 0.73585a0.41235 0.41235 0 0 0-0.15038 0.27336c-0.07189 0.61697 0.36827 1.1902 0.98598 1.2635 0.61726 0.0739 1.1834-0.38272 1.2557-1.0036 0.07268-0.62052-0.37361-1.1945-0.99011-1.2661-0.06339-0.0072-0.12508-0.0078-0.185-0.0031zm0.09146 0.82372c0.16931 0.01961 0.28757 0.16187 0.26561 0.34932-0.02188 0.18782-0.17191 0.30173-0.34004 0.28162-0.16787-0.0199-0.28694-0.16884-0.26561-0.35192 0.02114-0.18179 0.17246-0.29805 0.34004-0.27905zm19.617 0.64079c-0.52268 0.04667-0.96347 0.46556-1.0278 1.0077-0.0727 0.62052 0.37414 1.194 0.99064 1.2655a0.41235 0.41235 0 0 0 0.0016 0c0.61795 0.07 1.179-0.38793 1.2521-1.0041 0.0718-0.61697-0.37036-1.1922-0.98805-1.2655-0.07716-0.0092-0.15374-0.01029-0.22841-0.0036zm0.13074 0.82216c0.16788 0.0199 0.28694 0.16828 0.26561 0.35139-0.02151 0.1817-0.17162 0.29673-0.33797 0.27956-0.16775-0.0204-0.2885-0.16195-0.26768-0.34776 0.02241-0.18886 0.17191-0.30331 0.34004-0.28318zm-4.1401 2.129c-0.52249 0.04624-0.964 0.46296-1.0278 1.0056-0.0727 0.62052 0.37361 1.1961 0.99011 1.2676a0.41235 0.41235 0 0 0 0.0021 0c0.61795 0.07 1.179-0.38793 1.2521-1.0041a0.41235 0.41235 0 0 0 0-0.0021c0.0719-0.617-0.37089-1.1902-0.98855-1.2635-0.07708-0.0092-0.15325-0.01021-0.22789-0.0036zm0.13022 0.82216c0.16787 0.0199 0.28694 0.16624 0.26561 0.34932-0.02159 0.1817-0.17165 0.29675-0.33797 0.27956-0.16837-0.0204-0.28905-0.16098-0.26717-0.34776a0.41235 0.41235 0 0 0 0-0.0021c0.0218-0.18762 0.17139-0.29916 0.33951-0.27905zm3.8401 0.92809c-0.52265 0.04635-0.96294 0.46299-1.0273 1.0051-0.0727 0.62052 0.37361 1.1961 0.99011 1.2676 0.61795 0.07 1.179-0.3874 1.2521-1.0036a0.41235 0.41235 0 0 0 0-0.0021c0.0719-0.61697-0.3688-1.1907-0.98649-1.264-0.07716-0.0092-0.15374-0.0097-0.22841-0.0031zm0.13074 0.82165c0.16787 0.0199 0.28694 0.16676 0.26561 0.34985-0.0217 0.18284-0.17244 0.30011-0.34004 0.28112-0.1693-0.0196-0.28757-0.16238-0.26561-0.34985 0.02241-0.18888 0.17189-0.30125 0.34004-0.28112zm-8.1538 0.4165c-0.52289 0.04649-0.96455 0.46394-1.0278 1.0072-0.07268 0.62052 0.37414 1.1961 0.99061 1.2676a0.41235 0.41235 0 0 0 0.0021 0c0.61795 0.07 1.1777-0.38822 1.2495-1.0056 0.07191-0.617-0.36827-1.1922-0.98598-1.2655-0.07715-0.0092-0.1537-0.01027-0.22841-0.0036zm14.227 0.50434 11.741 15.023-2.9564 2.3988-1.1172-1.4676v0.17777c-0.61668-0.68971-1.2491-1.3037-1.9627-1.7404-0.58342-0.35708-1.2479-0.59478-1.9544-0.60668-0.10092-0.0016-0.2029 0.0016-0.3054 0.0093-0.82007 0.0626-1.6345 0.42926-2.4319 1.0588-0.80467 0.63528-1.3452 1.3642-1.574 2.1678-0.22885 0.80358-0.13055 1.6239 0.13849 2.3766 0.44862 1.2551 1.333 2.4211 2.2996 3.6282l-3.0556 2.4789-12.194-14.595c6.0734-0.92423 11.238-5.1114 13.373-10.909zm-14.096 0.31935c0.16785 0.0199 0.28694 0.16679 0.26561 0.34985-0.02101 0.18066-0.17163 0.29622-0.33795 0.27905-0.16837-0.0204-0.28956-0.16252-0.26768-0.34932 0.02188-0.18784 0.17188-0.29966 0.34004-0.27956zm3.9729 0.817c-0.52294 0.0464-0.96479 0.4637-1.0278 1.0072-0.0727 0.62052 0.37361 1.194 0.99011 1.2655 0.61795 0.07 1.179-0.38742 1.2521-1.0036 0.0719-0.617-0.3688-1.1928-0.98649-1.2661-0.07716-0.0092-0.15318-0.0097-0.22789-0.0031zm78.305 0.31263c-0.58419 0-1.0583 0.47413-1.0583 1.0583v15.749c0 0.58419 0.47413 1.0583 1.0583 1.0583s1.0583-0.47413 1.0583-1.0583v-15.749c0-0.58419-0.47413-1.0583-1.0583-1.0583zm-78.175 0.509c0.16789 0.0199 0.28696 0.16833 0.26561 0.35139-0.0217 0.18285-0.17194 0.30062-0.33951 0.28165-0.16933-0.01961-0.28757-0.16445-0.26561-0.35192 0.0218-0.1876 0.1714-0.30125 0.33951-0.28112zm-8.1554 0.41857c-0.52289 0.0465-0.96455 0.46394-1.0278 1.0072-0.07268 0.62052 0.37361 1.194 0.99011 1.2655 0.50593 0.0573 0.90703-0.28003 1.0996-0.72812a0.41235 0.41235 0 0 0 0.15244-0.27543c0.07189-0.61697-0.3688-1.1928-0.98649-1.2661-0.07716-0.0092-0.15319-0.0097-0.22789-0.0031zm0.13022 0.82165c0.16787 0.0199 0.28694 0.16831 0.26561 0.35139-0.02101 0.18066-0.17111 0.29675-0.33744 0.27956-0.16837-0.0204-0.28956-0.16302-0.26768-0.34985 0.02188-0.18782 0.17138-0.30122 0.33951-0.28112zm3.8793 0.65836c-0.52326 0.04644-0.96611 0.46444-1.0294 1.0077-0.07268 0.62052 0.37361 1.194 0.99011 1.2655a0.41235 0.41235 0 0 0 0.0021 0c0.61734 0.06999 1.1797-0.38729 1.2521-1.0041 0.07189-0.61697-0.3688-1.1922-0.98649-1.2655-0.07716-0.0092-0.15366-0.01024-0.22841-0.0036zm0.13074 0.82216c0.16786 0.0199 0.28694 0.16833 0.26561 0.35139-0.02103 0.18156-0.17244 0.29855-0.34004 0.27956-0.16932-0.0196-0.28757-0.1624-0.26561-0.34985 0.02188-0.18785 0.1719-0.30122 0.34004-0.28112zm17.589 10.919c0.38372-0.0293 0.74074 0.07047 1.1777 0.33797 0.74453 0.45569 1.6216 1.4489 2.5972 2.6437l-4.07 3.302c-0.9295-1.182-1.7022-2.2516-2.0035-3.0943-0.18155-0.50792-0.20956-0.9001-0.10387-1.2712 0.10569-0.37115 0.36216-0.77591 0.95548-1.2443 0.60054-0.47418 1.0632-0.64454 1.4469-0.67386zm9.1627 0.79064 14.774 21.314c-0.3471 0.08438-0.68156 0.21582-0.99733 0.37414-1.4166 0.71011-2.7143 1.9539-4.2833 3.1093-1.5787 1.1624-3.1615 2.0834-4.2539 3.2443-0.28516 0.303-0.54194 0.63732-0.73741 1.0061l-17.303-18.662 2.9966-2.4308c1.0058 1.2408 1.964 2.3428 3.1144 3.0183 1.3334 0.78297 3.0511 0.77871 4.6384-0.36689l0.0083-0.0083c0.83099-0.61544 1.351-1.4205 1.5156-2.2675 0.16467-0.84703 0.0019-1.6832-0.293-2.4608-0.48287-1.2716-1.3266-2.4501-2.1136-3.4892zm-4.346 3.5253c0.74691 1.0024 1.4807 2.062 1.8319 2.9868 0.21878 0.5762 0.28665 1.0721 0.20877 1.4728-0.0775 0.39864-0.27474 0.75519-0.81028 1.1539-1.1828 0.85227-1.7797 0.78972-2.6582 0.27389-0.75702-0.44452-1.6406-1.4082-2.6225-2.6008zm19.879 19.728c0.07248-0.0019 0.13972 4e-3 0.20257 0.01601 0.25141 0.048 0.55818 0.20429 0.99218 0.75188 0.42828 0.5404 0.48302 0.84263 0.46095 1.0687-0.02209 0.226-0.16198 0.51887-0.54519 0.91415-0.76638 0.79056-2.377 1.7574-4.0565 2.994-1.6701 1.2297-3.0615 2.4284-4.0446 2.9077-0.49154 0.23969-0.82361 0.29196-1.0624 0.24649-0.23884-0.0455-0.50834-0.18304-0.89452-0.70743-0.38613-0.5244-0.43777-0.82089-0.41031-1.0624 0.0275-0.24156 0.17607-0.54485 0.55086-0.94307 0.74961-0.79646 2.3064-1.7706 3.9764-3.0003 1.6796-1.2368 3.0345-2.4492 3.9883-2.9273 0.35774-0.17932 0.62489-0.25306 0.84232-0.25838zm0.65886 5.7282 3.4049 5.4088c-0.38978 0.47347-0.96609 1.2018-1.3751 1.5234-0.25226 0.19838-0.91278 0.55953-1.465 0.81856-0.2075 0.0973-0.21779 0.09567-0.37877 0.16588l-4.5254-4.7609c0.62287-0.48201 1.2597-0.99355 1.9435-1.497 0.81036-0.59671 1.6333-1.1265 2.3957-1.6588z" stroke-width=".26458"/>
</svg>
