<?xml version="1.0" encoding="UTF-8"?>
<!-- Created with Inkscape (http://www.inkscape.org/) -->
<svg width="134.41mm" height="134.41mm" version="1.1" viewBox="0 0 134.41 134.41" xmlns="http://www.w3.org/2000/svg" xmlns:cc="http://creativecommons.org/ns#" xmlns:dc="http://purl.org/dc/elements/1.1/" xmlns:rdf="http://www.w3.org/1999/02/22-rdf-syntax-ns#">
 <defs>
  <radialGradient id="SVGID_1_" cx="116.33" cy="1.2746" r="684.52" gradientTransform="matrix(.22237 -.0095131 .0083447 .19505 -11.475 116.86)" gradientUnits="userSpaceOnUse">
   <stop stop-color="#12f912" offset="0"/>
   <stop stop-color="#00d500" offset=".2634"/>
   <stop stop-color="#009c00" offset=".54182"/>
   <stop stop-color="#005400" offset="1"/>
  </radialGradient>
 </defs>
 <metadata>
  <rdf:RDF>
   <cc:Work rdf:about="">
    <dc:format>image/svg+xml</dc:format>
    <dc:type rdf:resource="http://purl.org/dc/dcmitype/StillImage"/>
    <dc:title/>
   </cc:Work>
  </rdf:RDF>
 </metadata>
 <path d="m33.682 1.5126c-17.877 0-32.422 14.548-32.422 32.43v66.774c0 17.882 14.544 32.43 32.422 32.43h66.775c17.885 0 32.436-14.548 32.436-32.43v-66.774c0-17.882-14.55-32.43-32.436-32.43z" fill="url(#SVGID_1_)" stroke-width=".28154"/>
 <path d="m34.178 0c-18.846 0-34.178 15.336-34.178 34.187v66.033c0 18.851 15.333 34.187 34.178 34.187h66.035c18.854 0 34.193-15.336 34.193-34.187v-66.033c0-18.851-15.339-34.187-34.193-34.187zm0 2.1167h66.035c17.688 0 32.077 14.387 32.077 32.07v66.033c0 17.683-14.39 32.07-32.077 32.07h-66.035c-17.679 0-32.062-14.387-32.062-32.07v-66.033c0-17.683 14.382-32.07 32.062-32.07zm63.473 4.1827c-0.0019 0-0.0034 5.028e-4 -0.0052 5.292e-4h-61.134c-16.378 0-30.215 13.835-30.215 30.212v61.38c0 16.379 13.837 30.215 30.215 30.215h61.38c16.379 0 30.215-13.838 30.215-30.218v-29.638c0-0.5842-0.47414-1.0583-1.0583-1.0583v0.0026c-0.58419 0-1.0583 0.47414-1.0583 1.0583v29.638c0 15.231-12.867 28.099-28.099 28.099h-61.38c-15.23 0-28.099-12.868-28.099-28.099v-61.38c0-15.23 12.867-28.095 28.099-28.095h61.139c3e-3 0 0.0058-0.00101 0.0088-0.00103 7.2347 0.00265 14.471 3.0919 19.854 8.4765 0.20637 0.20637 0.47734 0.31006 0.74827 0.31006s0.54191-0.10369 0.74828-0.31006c0.41379-0.41381 0.41379-1.0827 0-1.4965-5.7806-5.7805-13.565-9.0961-21.36-9.0961zm-55.831 20.565c-3.9754 0-7.2089 3.2354-7.2089 7.2109v15.703l-8.3716 7.9732c-1.5235 1.3232-2.4898 3.272-2.4898 5.4431v36.246c0 3.9755 3.2354 7.2109 7.2109 7.2109h73.129c2.2992 0 4.3496-1.0841 5.671-2.7657a1.1111 1.1111 0 0 0 5.3e-4 -5.3e-4 1.1111 1.1111 0 0 0 0.2129-0.26148 1.1111 1.1111 0 0 0 0.045-0.0868c0.80709-1.1644 1.2816-2.5758 1.2816-4.0964v-22.984a1.1113 1.1113 0 1 0-2.2226 0v22.984c0 0.75833-0.16847 1.4714-0.46302 2.111l-8.494-4.8762a1.1111 1.1111 0 0 0-0.5271-0.15451 1.1111 1.1111 0 0 0-0.57826 2.082l8.2264 4.7206c-0.85557 0.69245-1.9495 1.1054-3.1523 1.1054h-73.129c-1.2904 0-2.4529-0.47802-3.3326-1.264l39.73-23.27c7.2817 4.3034 14.564 8.6065 21.845 12.91a1.1111 1.1111 0 1 0 1.1286-1.9141c-6.9265-4.0937-13.854-8.1869-20.78-12.28l9.7725-5.7242 25.043-14.668c2.6498 0.14195 4.7108 2.2879 4.7108 4.977a1.1113 1.1113 0 1 0 2.2226 0c0-0.12423-3e-3 -0.24781-9e-3 -0.37052-0.096-1.8868-0.92222-3.5835-2.1994-4.8157l0.0331-0.03462-8.4202-8.0197v-15.879c0-3.9755-3.2354-7.2109-7.2109-7.2109zm0 2.2226h51.674c2.783 0 4.9883 2.2054 4.9883 4.9883v25.016l-31.118 18.225c-10.177-6.0146-20.355-12.03-30.533-18.044v-25.197c0-0.17393 9e-3 -0.34567 0.02585-0.5147 0.25249-2.5354 2.3536-4.4736 4.9625-4.4736zm25.895 2.9357c-9.577 0-17.447 7.8702-17.447 17.447 0 9.5768 7.87 17.449 17.447 17.449 2.3942 0 4.6862-0.49297 6.7717-1.3808a1.1111 1.1111 0 1 0-0.87126-2.0428c-1.1367 0.48391-2.341 0.83312-3.5946 1.0268-0.50145 0.07748-1.0105 0.1301-1.5265 0.15658-0.25803 0.01323-0.51804 0.01963-0.77928 0.01963-8.3597 0-15.224-6.8686-15.224-15.229 0-0.26125 0.0064-0.52112 0.01963-0.77928 0.41055-8.0031 7.1059-14.445 15.205-14.445 8.36 0 15.229 6.8649 15.229 15.224 0 2.0899-0.42877 4.0838-1.203 5.9025-0.38375 0.90139-0.58545 1.2736-0.66404 1.4061a1.1111 1.1111 0 0 0-0.23306 0.29352c-0.29425 0.36626-1.6597 1.937-3.3176 1.7632-1.1346-0.11893-1.7378-0.44961-2.1487-0.85524-0.41088-0.40563-0.66312-0.95475-0.83561-1.6505-4e-3 -0.0163-0.0603-0.39851-0.0863-0.87695-0.02609-0.47844-0.04134-1.0968-0.05064-1.7989-0.0186-1.4042-7e-3 -3.1436 0.01757-4.8323 0.05-3.3773 0.15038-6.5567 0.15038-6.5567a1.1111 1.1111 0 0 0-1.0914-1.1601h-5.29e-4a1.1111 1.1111 0 0 0-1.1286 1.0919s-0.0095 0.34657-0.01138 0.40876c-0.10659-0.0711-0.21493-0.14002-0.32505-0.20619-1.2514-0.75194-2.7257-1.1808-4.3005-1.1808-4.4381 0-8.0232 3.4445-8.2429 7.8248-0.0071 0.1413-0.01085 0.28368-0.01085 0.42685 0 4.5813 3.6725 8.2538 8.2538 8.2538 1.5748 0 3.0491-0.42835 4.3005-1.1803 0.09537-0.0573 0.18891-0.11779 0.28164-0.1788 0.01974 0.17099 0.04515 0.33423 0.08578 0.49816 0.22904 0.92388 0.62993 1.9073 1.432 2.6991 0.80203 0.79177 1.9709 1.3246 3.4783 1.4826 2.93 0.3072 4.8384-1.9714 5.3201-2.6215 0.16832-0.14557 0.22649-0.2538 0.31058-0.38861 0.19577-0.31385 0.43342-0.79208 0.85938-1.7927 0.88786-2.0855 1.3813-4.3775 1.3813-6.7717 0-9.5768-7.8726-17.447-17.45-17.447zm0 11.416c1.7086 0 3.2034 0.66409 4.2855 1.7461a1.1111 1.1111 0 0 0 0.26768 0.19896c-0.02413 1.0344-0.04844 2.1765-0.06666 3.4065-0.02482 1.6737-0.03745 3.3912-0.01963 4.8193a1.1118 1.1118 0 0 0-0.18138 0.14521c-1.0821 1.0821-2.5769 1.7461-4.2855 1.7461-3.417 0-6.0312-2.6141-6.0312-6.0312 0-0.10678 0.0027-0.21265 0.0078-0.31781 0.15657-3.2599 2.7131-5.7133 6.0234-5.7133zm59.334 0.65888c-0.58419 0-1.0583 0.47414-1.0583 1.0583v15.749c0 0.58419 0.47414 1.0583 1.0583 1.0583s1.0583-0.47414 1.0583-1.0583v-15.749c0-0.58419-0.47414-1.0583-1.0583-1.0583zm-92.437 8.7483v5.1144c-0.95984-0.56723-1.9196-1.1345-2.8794-1.7017a1.1111 1.1111 0 0 0-0.45269-0.23926zm66.094 0.17828 2.3053 2.1957 0.82423 0.78497a1.1111 1.1111 0 0 0-0.51676 0.25476l-2.6128 1.5301zm-70.025 5.194c11.497 6.7942 22.994 13.589 34.49 20.383l-38.829 22.741c-0.23693-0.58453-0.36949-1.2257-0.36949-1.9017v-36.246c0-0.17393 0.0085-0.34566 0.02532-0.5147 0.11411-1.1459 0.60886-2.1675 1.3544-2.9461l0.01291 0.01344 0.51056-0.48628c0.77731-0.60806 1.7428-0.98532 2.8045-1.0428z" color="#000000" color-rendering="auto" dominant-baseline="auto" fill="#060000" image-rendering="auto" shape-rendering="auto" solid-color="#000000" style="font-feature-settings:normal;font-variant-alternates:normal;font-variant-caps:normal;font-variant-ligatures:normal;font-variant-numeric:normal;font-variant-position:normal;isolation:auto;mix-blend-mode:normal;shape-padding:0;text-decoration-color:#000000;text-decoration-line:none;text-decoration-style:solid;text-indent:0;text-orientation:mixed;text-transform:none;white-space:normal"/>
</svg>
